HIERARCHY
ROOT Hips
{
	OFFSET 0.000000 71.427986 0.000000
	CHANNELS 6 Xposition Yposition Zposition Xrotation Yrotation Zrotation
	JOINT Pelvis
	{
		OFFSET 0.000000 0.000000 0.000000
		CHANNELS 3 Xrotation Yrotation Zrotation
		JOINT LeftUpLeg
		{
			OFFSET 6.797100 -2.508499 -1.318700
			CHANNELS 3 Xrotation Yrotation Zrotation
			JOINT LeftLeg
			{
				OFFSET 0.069008 -29.241863 0.690200
				CHANNELS 3 Xrotation Yrotation Zrotation
				JOINT LeftFoot
				{
					OFFSET -0.069008 -29.568123 -0.266800
					CHANNELS 3 Xrotation Yrotation Zrotation
					JOINT LeftToeBase
					{
						OFFSET 3.145500 -8.631000 16.059900
						CHANNELS 3 Xrotation Yrotation Zrotation
						End Site
						{
							OFFSET 0.000000 18.501587 0.000000
						}
					}
				}
			}
			JOINT Left_ShortSleeve
			{
				OFFSET 0.265923 -10.480953 1.153800
				CHANNELS 3 Xrotation Yrotation Zrotation
				End Site
				{
					OFFSET 1.725763 19.823879 0.000000
				}
			}
		}
		JOINT RightUpLeg
		{
			OFFSET -6.797100 -2.508499 -1.318700
			CHANNELS 3 Xrotation Yrotation Zrotation
			JOINT RightLeg
			{
				OFFSET -0.082453 -29.241932 0.688000
				CHANNELS 3 Xrotation Yrotation Zrotation
				JOINT RightFoot
				{
					OFFSET 0.082453 -29.568058 -0.264600
					CHANNELS 3 Xrotation Yrotation Zrotation
					JOINT RightToeBase
					{
						OFFSET -3.115300 -8.682800 16.113400
						CHANNELS 3 Xrotation Yrotation Zrotation
						End Site
						{
							OFFSET 0.000000 18.567114 0.000000
						}
					}
				}
			}
			JOINT Right_ShortSleeve
			{
				OFFSET -0.265923 -10.480953 1.153800
				CHANNELS 3 Xrotation Yrotation Zrotation
				End Site
				{
					OFFSET -1.725766 19.823910 0.000000
				}
			}
		}
	}
	JOINT Spine
	{
		OFFSET 0.000000 13.368103 0.470500
		CHANNELS 3 Xrotation Yrotation Zrotation
		JOINT Spine1
		{
			OFFSET 0.147000 13.837402 0.538800
			CHANNELS 3 Xrotation Yrotation Zrotation
			JOINT Spine2
			{
				OFFSET 0.168000 16.242897 -1.435500
				CHANNELS 3 Xrotation Yrotation Zrotation
				JOINT Neck
				{
					OFFSET 0.217200 18.631500 -1.679100
					CHANNELS 3 Xrotation Yrotation Zrotation
					JOINT Head
					{
						OFFSET 0.000000 6.599396 1.385900
						CHANNELS 3 Xrotation Yrotation Zrotation
						JOINT Hat
						{
							OFFSET -0.532200 27.220596 -10.096100
							CHANNELS 3 Xrotation Yrotation Zrotation
							End Site
							{
								OFFSET 0.000000 22.029861 0.000000
							}
						}
						JOINT HairD
						{
							OFFSET -10.777400 17.437393 -1.325900
							CHANNELS 3 Xrotation Yrotation Zrotation
							JOINT HairD1
							{
								OFFSET -3.290299 -11.051193 1.062200
								CHANNELS 3 Xrotation Yrotation Zrotation
								End Site
								{
									OFFSET 0.000000 11.579437 0.000000
								}
							}
						}
						JOINT HairB
						{
							OFFSET -10.777400 17.437393 1.467900
							CHANNELS 3 Xrotation Yrotation Zrotation
							JOINT HairB1
							{
								OFFSET -1.561200 -12.956299 3.590200
								CHANNELS 3 Xrotation Yrotation Zrotation
								End Site
								{
									OFFSET 0.000000 13.534866 0.000000
								}
							}
						}
						JOINT HairA
						{
							OFFSET 9.713100 17.437393 1.467900
							CHANNELS 3 Xrotation Yrotation Zrotation
							JOINT HairA1
							{
								OFFSET 1.561200 -12.956299 3.590200
								CHANNELS 3 Xrotation Yrotation Zrotation
								End Site
								{
									OFFSET 0.000000 13.534866 0.000000
								}
							}
						}
						JOINT HairC
						{
							OFFSET 9.713100 17.437393 -1.325900
							CHANNELS 3 Xrotation Yrotation Zrotation
							JOINT HairC1
							{
								OFFSET 3.290300 -11.051193 1.062200
								CHANNELS 3 Xrotation Yrotation Zrotation
								End Site
								{
									OFFSET 0.000000 11.579437 0.000000
								}
							}
						}
					}
				}
				JOINT LeftShoulder
				{
					OFFSET 5.101800 15.108002 -2.763700
					CHANNELS 3 Xrotation Yrotation Zrotation
					JOINT LeftArm
					{
						OFFSET 9.825497 2.506317 -1.597400
						CHANNELS 3 Xrotation Yrotation Zrotation
						JOINT LeftForeArm
						{
							OFFSET 21.966244 0.000000 0.000000
							CHANNELS 3 Xrotation Yrotation Zrotation
							JOINT LeftHand
							{
								OFFSET 33.879036 0.000000 0.000000
								CHANNELS 3 Xrotation Yrotation Zrotation
								JOINT LeftHandThumb1
								{
									OFFSET 6.715286 -2.359680 3.363841
									CHANNELS 3 Xrotation Yrotation Zrotation
									JOINT LeftHandThumb2
									{
										OFFSET 2.507072 -1.447464 1.447461
										CHANNELS 3 Xrotation Yrotation Zrotation
										JOINT LeftHandThumb3
										{
											OFFSET 2.898338 -1.673355 1.673357
											CHANNELS 3 Xrotation Yrotation Zrotation
											End Site
											{
												OFFSET -0.295959 3.727692 -0.131651
											}
										}
									}
								}
								JOINT LeftHandIndex1
								{
									OFFSET 14.190811 -0.254547 3.840278
									CHANNELS 3 Xrotation Yrotation Zrotation
									JOINT LeftHandIndex2
									{
										OFFSET 3.551727 0.000000 -0.000000
										CHANNELS 3 Xrotation Yrotation Zrotation
										JOINT LeftHandIndex3
										{
											OFFSET 2.894196 0.000000 0.000000
											CHANNELS 3 Xrotation Yrotation Zrotation
											End Site
											{
												OFFSET -1.000603 2.690872 0.366626
											}
										}
									}
								}
								JOINT LeftHandMiddle1
								{
									OFFSET 13.776489 0.000000 0.000000
									CHANNELS 3 Xrotation Yrotation Zrotation
									JOINT LeftHandMiddle2
									{
										OFFSET 3.438232 0.000000 0.000000
										CHANNELS 3 Xrotation Yrotation Zrotation
										JOINT LeftHandMiddle3
										{
											OFFSET 3.691551 0.000000 0.000000
											CHANNELS 3 Xrotation Yrotation Zrotation
											End Site
											{
												OFFSET -1.082298 3.499527 0.457670
											}
										}
									}
								}
								JOINT LeftHandRing1
								{
									OFFSET 13.966164 -0.268127 -3.067488
									CHANNELS 3 Xrotation Yrotation Zrotation
									JOINT LeftHandRing2
									{
										OFFSET 3.162567 0.000000 0.000000
										CHANNELS 3 Xrotation Yrotation Zrotation
										JOINT LeftHandRing3
										{
											OFFSET 3.324348 0.000000 0.000000
											CHANNELS 3 Xrotation Yrotation Zrotation
											End Site
											{
												OFFSET -0.861900 3.184998 0.405154
											}
										}
									}
								}
								JOINT LeftHandPinky1
								{
									OFFSET 13.131393 -0.168503 -5.746925
									CHANNELS 3 Xrotation Yrotation Zrotation
									JOINT LeftHandPinky2
									{
										OFFSET 2.849182 0.000000 0.000000
										CHANNELS 3 Xrotation Yrotation Zrotation
										JOINT LeftHandPinky3
										{
											OFFSET 2.805038 0.000000 0.000000
											CHANNELS 3 Xrotation Yrotation Zrotation
											End Site
											{
												OFFSET -0.882500 2.642609 0.325652
											}
										}
									}
								}
							}
							JOINT Left_Sleeve
							{
								OFFSET 6.592125 -0.646545 0.805568
								CHANNELS 3 Xrotation Yrotation Zrotation
								End Site
								{
									OFFSET -0.000179 20.275787 -0.000000
								}
							}
						}
					}
				}
				JOINT RightShoulder
				{
					OFFSET -5.731700 15.108002 -2.763700
					CHANNELS 3 Xrotation Yrotation Zrotation
					JOINT RightArm
					{
						OFFSET -9.825497 2.506317 -1.597400
						CHANNELS 3 Xrotation Yrotation Zrotation
						JOINT RightForeArm
						{
							OFFSET -21.966242 0.000000 0.000000
							CHANNELS 3 Xrotation Yrotation Zrotation
							JOINT RightHand
							{
								OFFSET -33.879032 0.000000 0.000000
								CHANNELS 3 Xrotation Yrotation Zrotation
								JOINT RightHandThumb1
								{
									OFFSET -6.715286 -2.359680 3.363841
									CHANNELS 3 Xrotation Yrotation Zrotation
									JOINT RightHandThumb2
									{
										OFFSET -2.507072 -1.447464 1.447461
										CHANNELS 3 Xrotation Yrotation Zrotation
										JOINT RightHandThumb3
										{
											OFFSET -2.898338 -1.673355 1.673357
											CHANNELS 3 Xrotation Yrotation Zrotation
											End Site
											{
												OFFSET 0.295959 3.727692 -0.131651
											}
										}
									}
								}
								JOINT RightHandIndex1
								{
									OFFSET -14.190811 -0.254547 3.840278
									CHANNELS 3 Xrotation Yrotation Zrotation
									JOINT RightHandIndex2
									{
										OFFSET -3.551727 0.000000 -0.000000
										CHANNELS 3 Xrotation Yrotation Zrotation
										JOINT RightHandIndex3
										{
											OFFSET -2.894196 0.000000 0.000000
											CHANNELS 3 Xrotation Yrotation Zrotation
											End Site
											{
												OFFSET 1.000603 2.690872 0.366626
											}
										}
									}
								}
								JOINT RightHandMiddle1
								{
									OFFSET -13.776489 0.000000 0.000000
									CHANNELS 3 Xrotation Yrotation Zrotation
									JOINT RightHandMiddle2
									{
										OFFSET -3.438232 0.000000 0.000000
										CHANNELS 3 Xrotation Yrotation Zrotation
										JOINT RightHandMiddle3
										{
											OFFSET -3.691551 0.000000 0.000000
											CHANNELS 3 Xrotation Yrotation Zrotation
											End Site
											{
												OFFSET 1.082298 3.499527 0.457670
											}
										}
									}
								}
								JOINT RightHandRing1
								{
									OFFSET -13.966164 -0.268127 -3.067488
									CHANNELS 3 Xrotation Yrotation Zrotation
									JOINT RightHandRing2
									{
										OFFSET -3.162567 0.000000 0.000000
										CHANNELS 3 Xrotation Yrotation Zrotation
										JOINT RightHandRing3
										{
											OFFSET -3.324348 0.000000 0.000000
											CHANNELS 3 Xrotation Yrotation Zrotation
											End Site
											{
												OFFSET 0.861900 3.184998 0.405154
											}
										}
									}
								}
								JOINT RightHandPinky1
								{
									OFFSET -13.131393 -0.168503 -5.746925
									CHANNELS 3 Xrotation Yrotation Zrotation
									JOINT RightHandPinky2
									{
										OFFSET -2.849182 0.000000 0.000000
										CHANNELS 3 Xrotation Yrotation Zrotation
										JOINT RightHandPinky3
										{
											OFFSET -2.805038 0.000000 0.000000
											CHANNELS 3 Xrotation Yrotation Zrotation
											End Site
											{
												OFFSET 0.882500 2.642609 0.325652
											}
										}
									}
								}
							}
							JOINT Right_Sleeve
							{
								OFFSET -6.592125 -0.646545 0.805568
								CHANNELS 3 Xrotation Yrotation Zrotation
								End Site
								{
									OFFSET 0.000179 20.275787 -0.000000
								}
							}
						}
					}
				}
				JOINT Bind_Right_JacketString
				{
					OFFSET -3.534800 11.969597 7.200700
					CHANNELS 3 Xrotation Yrotation Zrotation
					JOINT Bind_Right_JacketString1
					{
						OFFSET -0.319900 -6.102600 2.794100
						CHANNELS 3 Xrotation Yrotation Zrotation
						End Site
						{
							OFFSET 0.000000 6.719452 0.000000
						}
					}
				}
				JOINT Bind_Left_JacketString
				{
					OFFSET 2.904800 11.969597 7.200700
					CHANNELS 3 Xrotation Yrotation Zrotation
					JOINT Bind_Left_JacketString1
					{
						OFFSET 0.364800 -5.904503 3.186800
						CHANNELS 3 Xrotation Yrotation Zrotation
						End Site
						{
							OFFSET 0.000000 6.719513 0.000000
						}
					}
				}
				JOINT HairE
				{
					OFFSET 5.915200 17.612701 -11.592200
					CHANNELS 3 Xrotation Yrotation Zrotation
					JOINT HairE1
					{
						OFFSET 0.289200 -7.171898 -1.284500
						CHANNELS 3 Xrotation Yrotation Zrotation
						End Site
						{
							OFFSET 0.000000 7.291756 0.000000
						}
					}
				}
				JOINT HairF
				{
					OFFSET -0.864800 17.612701 -11.592200
					CHANNELS 3 Xrotation Yrotation Zrotation
					JOINT HairF1
					{
						OFFSET 0.000000 -14.087097 -2.127501
						CHANNELS 3 Xrotation Yrotation Zrotation
						End Site
						{
							OFFSET 0.000000 14.246841 0.000000
						}
					}
				}
				JOINT HairG
				{
					OFFSET -8.087700 17.612701 -11.592200
					CHANNELS 3 Xrotation Yrotation Zrotation
					JOINT HairG1
					{
						OFFSET -0.293600 -6.081398 -0.910100
						CHANNELS 3 Xrotation Yrotation Zrotation
						End Site
						{
							OFFSET 0.000000 6.156120 0.000000
						}
					}
				}
			}
		}
	}
	JOINT Pouch
	{
		OFFSET 0.000000 4.394501 10.847300
		CHANNELS 3 Xrotation Yrotation Zrotation
		End Site
		{
			OFFSET 0.000000 21.880577 0.000000
		}
	}
	JOINT Bag
	{
		OFFSET -13.229000 4.813004 -0.593300
		CHANNELS 3 Xrotation Yrotation Zrotation
		End Site
		{
			OFFSET 0.000000 21.880577 0.000000
		}
	}
	JOINT OccupyGuyFacialAnim_Joint
	{
		OFFSET 1.000000 -70.206398 -1.655000
		CHANNELS 3 Xrotation Yrotation Zrotation
		End Site
		{
			OFFSET 0.000000 21.880577 0.000000
		}
	}
}
MOTION
Frames: 4
Frame Time: 0.033333
-0.524906 49.714493 1.271449 1.509529 -24.856100 2.140147 -0.000000 -0.000000 -0.000000 -74.006514 6.736180 13.502450 118.768165 -10.727271 0.114418 -2.180761 -1.279760 5.739814 -0.000001 -0.000000 -0.000002 -0.000001 0.000000 -0.000001 -68.171107 3.702938 12.674345 96.194253 5.478494 -0.955195 -27.322990 -1.704687 -4.882865 -0.000000 -0.000000 0.000000 0.000000 0.000000 -0.000000 25.975373 -0.459379 -5.709552 16.109809 -1.188743 2.543898 16.579477 -1.256514 3.563602 -9.038272 4.478005 4.955585 -23.294164 23.313126 -0.859964 -0.000000 0.000000 0.000001 -0.000000 0.000000 0.000001 -0.000000 0.000000 0.000000 -0.000000 0.000000 0.000000 -0.000000 -0.000000 0.000001 -0.000000 0.000000 0.000000 -0.000000 -0.000000 0.000001 -0.000000 0.000000 0.000001 -0.000000 0.000000 0.000001 13.064825 -8.984415 5.050518 -95.614855 -12.390045 -64.952428 -91.427430 18.185020 -73.849269 -23.726523 7.638588 9.100684 0.699138 9.503407 -2.418094 5.975201 12.647529 1.348337 0.000000 0.000001 -0.000001 9.479727 -1.289764 -20.785574 0.709497 2.796372 -28.467081 0.000003 -0.000001 0.000001 10.058163 -1.800627 -20.644756 1.774250 4.200390 -45.782017 -0.000001 0.000000 -0.000001 1.254255 -0.073732 -17.945772 3.754083 5.463619 -68.965185 0.000004 0.000000 0.000002 -7.938245 1.609066 -6.495658 2.210538 4.583573 -51.475178 -0.000000 0.000003 0.000001 0.000000 -0.000002 0.000000 17.387565 16.576236 -8.699035 -57.266563 23.607273 55.884119 46.734623 118.467514 -41.563832 0.019258 10.995677 -12.964250 13.942509 -4.273696 -5.300395 7.113308 -20.767588 -2.619507 0.000001 -0.000001 0.000000 0.357769 -5.832772 5.175905 0.094416 -0.933572 11.539808 -0.000000 -0.000001 0.000000 3.764051 -12.080474 1.143772 5.714290 -4.535750 103.133507 0.000001 -0.000001 0.000001 -12.155669 -12.623943 9.228349 6.566941 -4.248355 114.232366 0.000001 -0.000003 -0.000002 -17.635743 -10.496816 3.325432 4.993730 -4.644969 94.147922 -0.000000 -0.000001 0.000000 -0.000000 -0.000000 0.000001 -0.000000 0.000001 -0.000001 -0.000000 -0.000001 0.000000 -0.000000 0.000001 -0.000001 -0.000000 0.000001 -0.000001 -0.000000 0.000001 -0.000001 -0.000000 -0.000001 0.000000 -0.000000 0.000001 -0.000001 -0.000000 0.000001 -0.000001 -0.000000 0.000001 -0.000001 -0.000000 -0.000001 0.000000 -0.000000 -0.000000 -0.000000 -0.000000 -0.000000 -0.000000 -0.000000 -0.000000 -0.000000 
-0.552765 50.066185 5.013155 1.798911 -25.978122 2.498304 -0.000000 -0.000000 0.000000 -79.927796 1.728602 16.332382 110.650226 -4.209979 0.639371 4.302196 1.056330 -0.701618 -0.000003 -0.000001 0.000000 -0.000000 0.000000 -0.000000 -66.063728 5.717175 12.301376 99.392933 6.317194 -0.800132 -30.590409 -1.067237 -4.796830 -0.000000 -0.000000 -0.000000 -0.000002 0.000000 -0.000000 26.026880 -0.320229 -6.094416 15.682135 -1.005662 2.274839 16.140304 -0.972782 3.228304 -9.044711 4.514680 4.965753 -22.801369 23.171558 -0.918870 0.000000 0.000000 -0.000001 0.000000 0.000000 -0.000001 0.000000 0.000000 0.000000 0.000000 0.000000 0.000000 0.000000 0.000000 0.000001 0.000000 0.000000 0.000000 0.000000 0.000000 0.000001 0.000000 0.000000 -0.000001 0.000000 0.000000 -0.000001 13.203743 -8.570768 5.006881 -95.799666 -12.207509 -64.961936 -91.560250 19.578520 -73.306822 -22.777156 7.656236 9.025144 0.699139 9.503407 -2.418095 5.975202 12.647530 1.348338 -0.000000 0.000001 0.000000 9.479727 -1.289758 -20.785574 0.709497 2.796373 -28.467078 -0.000003 -0.000001 0.000005 10.058160 -1.800620 -20.644756 1.774248 4.200387 -45.782014 0.000002 -0.000003 -0.000002 1.254255 -0.073731 -17.945771 3.754082 5.463620 -68.965192 -0.000001 0.000001 0.000001 -7.938246 1.609067 -6.495658 2.210541 4.583578 -51.475181 0.000001 -0.000002 0.000003 -0.000000 -0.000002 0.000001 17.153330 17.121572 -8.785371 -56.791650 23.430153 55.643225 47.015740 118.866889 -41.701740 0.253819 10.384467 -13.306255 13.942510 -4.273695 -5.300396 7.113306 -20.767590 -2.619509 -0.000001 0.000000 -0.000000 0.357768 -5.832772 5.175908 0.094415 -0.933572 11.539807 0.000000 0.000001 0.000000 3.764050 -12.080474 1.143771 5.714290 -4.535748 103.133500 0.000000 -0.000000 -0.000003 -12.155670 -12.623943 9.228350 6.566942 -4.248355 114.232366 0.000001 -0.000001 0.000002 -17.635748 -10.496817 3.325436 4.993731 -4.644966 94.147915 -0.000001 -0.000001 -0.000001 -0.000000 -0.000001 -0.000002 -0.000000 -0.000001 0.000001 -0.000000 -0.000001 0.000001 -0.000000 -0.000001 0.000001 -0.000000 -0.000001 0.000001 -0.000000 -0.000001 0.000001 -0.000000 -0.000001 0.000001 -0.000000 -0.000001 0.000001 -0.000000 -0.000001 0.000001 -0.000000 -0.000001 0.000001 -0.000000 -0.000001 0.000001 -0.000000 -0.000000 0.000000 -0.000000 -0.000000 0.000000 -0.000000 -0.000000 0.000000 
-0.567042 50.392136 9.552008 2.233876 -27.246384 3.045759 -0.000000 -0.000000 0.000000 -82.803080 1.616329 17.937287 102.012031 -5.472202 0.943511 3.083269 0.431619 2.158055 -0.000001 0.000001 -0.000001 -0.000000 0.000000 0.000001 -62.862233 8.364422 11.294679 102.493750 7.492188 -0.618151 -34.609559 -0.233607 -4.852299 0.000000 -0.000000 0.000000 -0.000000 0.000000 -0.000000 25.929312 -0.229788 -6.645900 15.342036 -0.812236 1.922568 15.795103 -0.735093 2.824570 -9.106047 4.571905 5.012459 -22.441328 23.089839 -0.850815 -0.000001 -0.000000 0.000001 -0.000001 -0.000000 0.000001 -0.000001 -0.000000 0.000000 -0.000001 -0.000000 0.000000 -0.000003 0.000000 0.000001 -0.000001 -0.000000 0.000000 -0.000003 0.000000 0.000001 -0.000001 -0.000000 0.000001 -0.000001 -0.000000 0.000001 13.310731 -8.110246 4.930320 -95.828258 -12.083606 -64.858684 -91.663584 21.024103 -72.923908 -21.682191 7.642755 8.870506 0.699137 9.503406 -2.418096 5.975204 12.647531 1.348337 -0.000001 0.000001 -0.000000 9.479725 -1.289763 -20.785574 0.709495 2.796376 -28.467083 0.000003 0.000001 0.000002 10.058162 -1.800625 -20.644756 1.774246 4.200387 -45.782010 0.000001 -0.000001 -0.000001 1.254255 -0.073733 -17.945776 3.754079 5.463631 -68.965192 -0.000002 0.000001 0.000001 -7.938242 1.609066 -6.495658 2.210537 4.583578 -51.475178 -0.000004 0.000002 0.000001 -0.000000 0.000002 0.000001 16.974125 17.552732 -8.832681 -56.380029 23.477901 55.720676 46.840280 118.715982 -41.617582 0.173083 10.248833 -13.459679 13.942508 -4.273696 -5.300396 7.113311 -20.767591 -2.619509 0.000000 -0.000001 -0.000002 0.357770 -5.832769 5.175906 0.094414 -0.933571 11.539804 0.000000 0.000002 0.000001 3.764051 -12.080474 1.143775 5.714289 -4.535749 103.133500 0.000000 -0.000000 -0.000001 -12.155669 -12.623941 9.228350 6.566940 -4.248355 114.232366 0.000000 -0.000000 0.000002 -17.635745 -10.496816 3.325433 4.993732 -4.644970 94.147915 -0.000000 0.000000 -0.000001 0.000000 0.000001 -0.000001 -0.000001 0.000000 -0.000001 0.000000 0.000000 -0.000001 -0.000001 0.000000 -0.000001 -0.000001 0.000000 -0.000001 -0.000001 0.000000 -0.000001 0.000000 0.000000 -0.000001 -0.000001 0.000000 -0.000001 -0.000001 0.000000 -0.000001 -0.000001 0.000000 -0.000001 0.000000 0.000000 -0.000001 -0.000000 -0.000000 0.000000 -0.000000 -0.000000 0.000000 -0.000000 -0.000000 0.000000 
-0.572339 50.685043 13.482224 2.742923 -28.539242 3.764682 -0.000000 -0.000000 0.000000 -84.446922 2.173753 20.078553 92.279455 -6.238160 1.494562 -3.216730 -0.811646 1.163869 0.000001 -0.000001 0.000000 -0.000001 -0.000000 0.000000 -59.684693 11.136621 10.089841 104.401231 8.545586 -0.488956 -37.680771 0.546279 -4.815229 -0.000001 0.000000 -0.000000 -0.000003 0.000000 -0.000002 25.642449 -0.176755 -7.215820 15.061187 -0.508042 1.469708 15.521530 -0.473037 2.325384 -9.135266 4.593638 5.023767 -22.061147 23.002959 -0.745102 0.000000 -0.000000 0.000000 0.000000 -0.000000 0.000000 0.000000 -0.000000 -0.000000 0.000000 -0.000000 -0.000000 -0.000000 -0.000000 -0.000000 0.000000 -0.000000 -0.000000 -0.000000 -0.000000 -0.000000 0.000000 -0.000000 0.000000 0.000000 -0.000000 0.000000 13.390203 -7.639455 4.838740 -95.738495 -12.263157 -65.054642 -91.838286 21.377597 -72.384467 -21.452282 7.869356 8.558208 0.699138 9.503408 -2.418097 5.975204 12.647530 1.348337 0.000001 0.000001 -0.000000 9.479728 -1.289760 -20.785574 0.709496 2.796372 -28.467078 0.000003 -0.000003 0.000003 10.058161 -1.800624 -20.644759 1.774245 4.200385 -45.782014 0.000002 -0.000001 0.000001 1.254254 -0.073735 -17.945774 3.754081 5.463621 -68.965185 -0.000001 0.000003 0.000000 -7.938246 1.609067 -6.495656 2.210541 4.583571 -51.475178 -0.000001 0.000001 0.000003 0.000001 -0.000002 -0.000002 16.866485 17.845076 -8.925605 -55.902400 23.356399 55.960368 47.105486 118.606617 -41.908989 0.430879 10.436125 -13.590344 13.942508 -4.273696 -5.300396 7.113304 -20.767590 -2.619509 -0.000000 -0.000001 0.000001 0.357768 -5.832770 5.175906 0.094413 -0.933571 11.539801 0.000000 0.000001 -0.000001 3.764049 -12.080474 1.143773 5.714290 -4.535748 103.133507 0.000001 -0.000000 -0.000001 -12.155669 -12.623942 9.228350 6.566942 -4.248354 114.232366 -0.000000 -0.000000 0.000001 -17.635743 -10.496816 3.325435 4.993733 -4.644968 94.147915 0.000000 0.000001 0.000001 -0.000000 0.000001 0.000001 0.000001 0.000001 0.000001 -0.000001 0.000001 -0.000001 0.000001 0.000001 -0.000000 0.000001 0.000001 -0.000000 0.000001 0.000001 0.000001 -0.000001 0.000001 -0.000000 0.000001 0.000001 -0.000000 0.000001 0.000001 -0.000000 0.000001 0.000001 0.000001 -0.000001 0.000001 -0.000000 -0.000000 -0.000000 0.000000 -0.000000 -0.000000 0.000000 -0.000000 -0.000000 0.000000 
